<svg width="30" height="31" viewBox="0 0 30 31" fill="none" xmlns="http://www.w3.org/2000/svg">
<circle cx="15" cy="15.0632" r="15" fill="white"/>
<path d="M22.3324 14.298C22.1553 14.298 21.9855 14.2279 21.8603 14.1032C21.7351 13.9785 21.6647 13.8094 21.6647 13.6331C21.6633 12.2228 21.1001 10.8706 20.0988 9.87339C19.0975 8.87616 17.7397 8.31529 16.3236 8.31388C16.1466 8.31388 15.9768 8.24383 15.8515 8.11913C15.7263 7.99444 15.656 7.82532 15.656 7.64898C15.656 7.47264 15.7263 7.30352 15.8515 7.17882C15.9768 7.05413 16.1466 6.98408 16.3236 6.98408C18.0937 6.98602 19.7908 7.68716 21.0424 8.93366C22.294 10.1802 22.9981 11.8703 23 13.6331C23 13.8094 22.9297 13.9785 22.8045 14.1032C22.6792 14.2279 22.5094 14.298 22.3324 14.298ZM20.3295 13.6331C20.3295 12.575 19.9074 11.5603 19.1562 10.8121C18.4049 10.064 17.386 9.64368 16.3236 9.64368C16.1466 9.64368 15.9768 9.71373 15.8515 9.83842C15.7263 9.96312 15.656 10.1322 15.656 10.3086C15.656 10.4849 15.7263 10.654 15.8515 10.7787C15.9768 10.9034 16.1466 10.9735 16.3236 10.9735C17.0319 10.9735 17.7112 11.2537 18.212 11.7525C18.7128 12.2512 18.9942 12.9277 18.9942 13.6331C18.9942 13.8094 19.0645 13.9785 19.1897 14.1032C19.3149 14.2279 19.4847 14.298 19.6618 14.298C19.8389 14.298 20.0087 14.2279 20.1339 14.1032C20.2591 13.9785 20.3295 13.8094 20.3295 13.6331ZM21.7869 21.7209L22.3945 21.0234C22.7812 20.6371 22.9983 20.1138 22.9983 19.5683C22.9983 19.0228 22.7812 18.4995 22.3945 18.1132C22.3738 18.0926 20.7674 16.8618 20.7674 16.8618C20.3819 16.4964 19.8698 16.2928 19.3375 16.2936C18.8053 16.2943 18.2938 16.4993 17.9093 16.8658L16.6368 17.9336C15.598 17.5055 14.6545 16.8772 13.8602 16.0849C13.066 15.2926 12.4368 14.3518 12.0087 13.3166L13.0769 12.0533C13.4453 11.6704 13.6513 11.1609 13.6522 10.6307C13.653 10.1004 13.4487 9.59024 13.0816 9.20617C13.0816 9.20617 11.8445 7.60842 11.8238 7.58781C11.4428 7.20599 10.9264 6.98875 10.386 6.98303C9.84554 6.9773 9.32456 7.18356 8.93557 7.55722L8.16779 8.22212C3.63187 13.4629 13.3994 23.1152 18.8353 22.9417C19.3842 22.9448 19.9282 22.8384 20.4351 22.6288C20.9421 22.4191 21.4017 22.1104 21.7869 21.7209Z" fill="black"/>
</svg>
