<svg width="30" height="30" viewBox="0 0 30 30" fill="none" xmlns="http://www.w3.org/2000/svg">
<path d="M30 14.9635C30 6.71238 23.2712 -2.93407e-07 15 -6.54076e-07C6.72875 -1.01474e-06 -2.94123e-07 6.71238 -6.55671e-07 14.9635C-1.01722e-06 23.2146 6.72875 29.927 15 29.927C23.2712 29.927 30 23.2146 30 14.9635ZM7.5 11.0443C7.5 10.1428 7.82625 9.23747 8.51625 8.55039L9.26625 7.89948C9.82375 7.34334 10.7287 7.34334 11.2863 7.89948L12.5363 9.52302C13.0938 10.0792 13.0938 10.982 12.5363 11.5381L11.4725 12.8711C12.4612 15.4536 14.2925 17.3589 17.0975 18.4824L18.4337 17.4213C18.9912 16.8651 19.8962 16.8651 20.4537 17.4213L22.0812 18.6682C22.6387 19.2244 22.6387 20.1272 22.0812 20.6833L21.4288 21.4315C20.74 22.1198 19.8325 22.4453 18.9287 22.4453C13.9287 22.4453 7.5 15.6755 7.5 11.0443Z" fill="url(#paint0_linear_2014_288)"/>
<path d="M7.5 11.0443C7.5 10.1428 7.82625 9.23747 8.51625 8.55039L9.26625 7.89948C9.82375 7.34334 10.7287 7.34334 11.2863 7.89948L12.5363 9.52302C13.0938 10.0792 13.0938 10.982 12.5363 11.5381L11.4725 12.8711C12.4612 15.4536 14.2925 17.3589 17.0975 18.4824L18.4337 17.4213C18.9912 16.8651 19.8962 16.8651 20.4537 17.4213L22.0812 18.6682C22.6387 19.2244 22.6387 20.1272 22.0812 20.6833L21.4288 21.4315C20.74 22.1198 19.8325 22.4453 18.9287 22.4453C13.9287 22.4453 7.5 15.6755 7.5 11.0443Z" fill="white"/>
<defs>
<linearGradient id="paint0_linear_2014_288" x1="15" y1="-6.54076e-07" x2="15" y2="29.927" gradientUnits="userSpaceOnUse">
<stop offset="0.09" stop-color="#25D366"/>
<stop offset="0.9999" stop-color="#19A65F"/>
<stop offset="1" stop-color="#075E54"/>
</linearGradient>
</defs>
</svg>
