<svg width="30" height="30" viewBox="0 0 30 30" fill="none" xmlns="http://www.w3.org/2000/svg">
<circle cx="15" cy="15" r="15" fill="black"/>
<path d="M22.3324 14.2347C22.1553 14.2347 21.9855 14.1647 21.8603 14.04C21.7351 13.9153 21.6647 13.7462 21.6647 13.5698C21.6633 12.1595 21.1001 10.8074 20.0988 9.81016C19.0975 8.81292 17.7397 8.25206 16.3236 8.25065C16.1466 8.25065 15.9768 8.1806 15.8515 8.0559C15.7263 7.93121 15.656 7.76209 15.656 7.58575C15.656 7.40941 15.7263 7.24028 15.8515 7.11559C15.9768 6.9909 16.1466 6.92085 16.3236 6.92085C18.0937 6.92278 19.7908 7.62392 21.0424 8.87043C22.294 10.1169 22.9981 11.807 23 13.5698C23 13.7462 22.9297 13.9153 22.8045 14.04C22.6792 14.1647 22.5094 14.2347 22.3324 14.2347ZM20.3295 13.5698C20.3295 12.5118 19.9074 11.4971 19.1562 10.7489C18.4049 10.0008 17.386 9.58045 16.3236 9.58045C16.1466 9.58045 15.9768 9.6505 15.8515 9.77519C15.7263 9.89988 15.656 10.069 15.656 10.2453C15.656 10.4217 15.7263 10.5908 15.8515 10.7155C15.9768 10.8402 16.1466 10.9102 16.3236 10.9102C17.0319 10.9102 17.7112 11.1905 18.212 11.6892C18.7128 12.188 18.9942 12.8645 18.9942 13.5698C18.9942 13.7462 19.0645 13.9153 19.1897 14.04C19.3149 14.1647 19.4847 14.2347 19.6618 14.2347C19.8389 14.2347 20.0087 14.1647 20.1339 14.04C20.2591 13.9153 20.3295 13.7462 20.3295 13.5698ZM21.7869 21.6577L22.3945 20.9602C22.7812 20.5738 22.9983 20.0506 22.9983 19.5051C22.9983 18.9596 22.7812 18.4363 22.3945 18.0499C22.3738 18.0293 20.7674 16.7986 20.7674 16.7986C20.3819 16.4331 19.8698 16.2296 19.3375 16.2304C18.8053 16.2311 18.2938 16.436 17.9093 16.8026L16.6368 17.8704C15.598 17.4423 14.6545 16.814 13.8602 16.0217C13.066 15.2293 12.4368 14.2886 12.0087 13.2534L13.0769 11.99C13.4453 11.6072 13.6513 11.0977 13.6522 10.5674C13.653 10.0372 13.4487 9.52701 13.0816 9.14294C13.0816 9.14294 11.8445 7.54519 11.8238 7.52458C11.4428 7.14276 10.9264 6.92552 10.386 6.91979C9.84554 6.91407 9.32456 7.12032 8.93557 7.49399L8.16779 8.15889C3.63187 13.3996 13.3994 23.052 18.8353 22.8784C19.3842 22.8816 19.9282 22.7752 20.4351 22.5655C20.9421 22.3559 21.4017 22.0472 21.7869 21.6577Z" fill="white"/>
</svg>
