<svg width="30" height="31" viewBox="0 0 30 31" fill="none" xmlns="http://www.w3.org/2000/svg">
<path d="M30 15.9003C30 7.64915 23.2713 0.936767 15 0.936767C6.72875 0.936767 -2.94123e-07 7.64914 -6.55671e-07 15.9003C-1.01722e-06 24.1514 6.72875 30.8638 15 30.8638C23.2712 30.8638 30 24.1514 30 15.9003ZM7.5 11.9811C7.5 11.0795 7.82625 10.1742 8.51625 9.48716L9.26625 8.83625C9.82375 8.28011 10.7287 8.28011 11.2863 8.83625L12.5363 10.4598C13.0937 11.0159 13.0937 11.9187 12.5363 12.4749L11.4725 13.8079C12.4612 16.3903 14.2925 18.2957 17.0975 19.4192L18.4337 18.358C18.9912 17.8019 19.8962 17.8019 20.4537 18.358L22.0812 19.605C22.6387 20.1611 22.6387 21.0639 22.0812 21.6201L21.4288 22.3682C20.74 23.0566 19.8325 23.382 18.9287 23.382C13.9287 23.382 7.5 16.6123 7.5 11.9811Z" fill="black"/>
</svg>
